<?xml version="1.0" encoding="UTF-8" standalone="no"?>
<!-- Created with Inkscape (http://www.inkscape.org/) -->

<svg
   xmlns:dc="http://purl.org/dc/elements/1.1/"
   xmlns:cc="http://creativecommons.org/ns#"
   xmlns:rdf="http://www.w3.org/1999/02/22-rdf-syntax-ns#"
   xmlns:svg="http://www.w3.org/2000/svg"
   xmlns="http://www.w3.org/2000/svg"
   xmlns:sodipodi="http://sodipodi.sourceforge.net/DTD/sodipodi-0.dtd"
   xmlns:inkscape="http://www.inkscape.org/namespaces/inkscape"
   width="297mm"
   height="210mm"
   id="svg5303"
   version="1.1"
   inkscape:version="0.48.4 r9939"
   sodipodi:docname="generic_protocol_server_simplecall_example.svg">
  <defs
     id="defs5305">
    <marker
       inkscape:stockid="Arrow1Lend"
       orient="auto"
       refY="0.0"
       refX="0.0"
       id="Arrow1Lend"
       style="overflow:visible;">
      <path
         id="path5607"
         d="M 0.0,0.0 L 5.0,-5.0 L -12.5,0.0 L 5.0,5.0 L 0.0,0.0 z "
         style="fill-rule:evenodd;stroke:#000000;stroke-width:1.0pt;"
         transform="scale(0.8) rotate(180) translate(12.5,0)" />
    </marker>
    <marker
       inkscape:stockid="Arrow1Lstart"
       orient="auto"
       refY="0"
       refX="0"
       id="Arrow1Lstart-98"
       style="overflow:visible">
      <path
         inkscape:connector-curvature="0"
         id="path3729-32"
         d="M 0,0 5,-5 -12.5,0 5,5 0,0 z"
         style="fill-rule:evenodd;stroke:#000000;stroke-width:1pt;marker-start:none"
         transform="matrix(0.8,0,0,0.8,10,0)" />
    </marker>
    <marker
       inkscape:stockid="Arrow1Lend"
       orient="auto"
       refY="0"
       refX="0"
       id="Arrow1Lend-03"
       style="overflow:visible">
      <path
         inkscape:connector-curvature="0"
         id="path3732-47"
         d="M 0,0 5,-5 -12.5,0 5,5 0,0 z"
         style="fill-rule:evenodd;stroke:#000000;stroke-width:1pt;marker-start:none"
         transform="matrix(-0.8,0,0,-0.8,-10,0)" />
    </marker>
    <marker
       inkscape:stockid="Arrow1Lstart"
       orient="auto"
       refY="0"
       refX="0"
       id="marker3177"
       style="overflow:visible">
      <path
         inkscape:connector-curvature="0"
         id="path3179"
         d="M 0,0 5,-5 -12.5,0 5,5 0,0 z"
         style="fill-rule:evenodd;stroke:#000000;stroke-width:1pt;marker-start:none"
         transform="matrix(0.8,0,0,0.8,10,0)" />
    </marker>
    <marker
       inkscape:stockid="Arrow1Lstart"
       orient="auto"
       refY="0"
       refX="0"
       id="marker3181"
       style="overflow:visible">
      <path
         inkscape:connector-curvature="0"
         id="path3183"
         d="M 0,0 5,-5 -12.5,0 5,5 0,0 z"
         style="fill-rule:evenodd;stroke:#000000;stroke-width:1pt;marker-start:none"
         transform="matrix(0.8,0,0,0.8,10,0)" />
    </marker>
    <marker
       inkscape:stockid="Arrow1Lend"
       orient="auto"
       refY="0"
       refX="0"
       id="marker3185"
       style="overflow:visible">
      <path
         inkscape:connector-curvature="0"
         id="path3187"
         d="M 0,0 5,-5 -12.5,0 5,5 0,0 z"
         style="fill-rule:evenodd;stroke:#000000;stroke-width:1pt;marker-start:none"
         transform="matrix(-0.8,0,0,-0.8,-10,0)" />
    </marker>
    <marker
       inkscape:stockid="Arrow1Lstart"
       orient="auto"
       refY="0"
       refX="0"
       id="Arrow1Lstart"
       style="overflow:visible">
      <path
         inkscape:connector-curvature="0"
         id="path3729"
         d="M 0,0 5,-5 -12.5,0 5,5 0,0 z"
         style="fill-rule:evenodd;stroke:#000000;stroke-width:1pt;marker-start:none"
         transform="matrix(0.8,0,0,0.8,10,0)" />
    </marker>
    <marker
       inkscape:stockid="Arrow1Lstart"
       orient="auto"
       refY="0"
       refX="0"
       id="marker3191"
       style="overflow:visible">
      <path
         inkscape:connector-curvature="0"
         id="path3193"
         d="M 0,0 5,-5 -12.5,0 5,5 0,0 z"
         style="fill-rule:evenodd;stroke:#000000;stroke-width:1pt;marker-start:none"
         transform="matrix(0.8,0,0,0.8,10,0)" />
    </marker>
    <marker
       inkscape:stockid="Arrow1Lend"
       orient="auto"
       refY="0"
       refX="0"
       id="Arrow1Lend-2"
       style="overflow:visible">
      <path
         inkscape:connector-curvature="0"
         id="path3732"
         d="M 0,0 5,-5 -12.5,0 5,5 0,0 z"
         style="fill-rule:evenodd;stroke:#000000;stroke-width:1pt;marker-start:none"
         transform="matrix(-0.8,0,0,-0.8,-10,0)" />
    </marker>
    <marker
       inkscape:stockid="Arrow1Lend"
       orient="auto"
       refY="0"
       refX="0"
       id="marker3197"
       style="overflow:visible">
      <path
         inkscape:connector-curvature="0"
         id="path3199"
         d="M 0,0 5,-5 -12.5,0 5,5 0,0 z"
         style="fill-rule:evenodd;stroke:#000000;stroke-width:1pt;marker-start:none"
         transform="matrix(-0.8,0,0,-0.8,-10,0)" />
    </marker>
    <marker
       inkscape:stockid="Arrow1Lstart"
       orient="auto"
       refY="0"
       refX="0"
       id="marker3201"
       style="overflow:visible">
      <path
         inkscape:connector-curvature="0"
         id="path3203"
         d="M 0,0 5,-5 -12.5,0 5,5 0,0 z"
         style="fill-rule:evenodd;stroke:#000000;stroke-width:1pt;marker-start:none"
         transform="matrix(0.8,0,0,0.8,10,0)" />
    </marker>
    <marker
       inkscape:stockid="Arrow1Lstart"
       orient="auto"
       refY="0"
       refX="0"
       id="marker3205"
       style="overflow:visible">
      <path
         inkscape:connector-curvature="0"
         id="path3207"
         d="M 0,0 5,-5 -12.5,0 5,5 0,0 z"
         style="fill-rule:evenodd;stroke:#000000;stroke-width:1pt;marker-start:none"
         transform="matrix(0.8,0,0,0.8,10,0)" />
    </marker>
    <marker
       inkscape:stockid="Arrow1Lend"
       orient="auto"
       refY="0"
       refX="0"
       id="marker3209"
       style="overflow:visible">
      <path
         inkscape:connector-curvature="0"
         id="path3211"
         d="M 0,0 5,-5 -12.5,0 5,5 0,0 z"
         style="fill-rule:evenodd;stroke:#000000;stroke-width:1pt;marker-start:none"
         transform="matrix(-0.8,0,0,-0.8,-10,0)" />
    </marker>
  </defs>
  <sodipodi:namedview
     inkscape:document-units="mm"
     pagecolor="#ffffff"
     bordercolor="#666666"
     borderopacity="1.0"
     inkscape:pageopacity="0.0"
     inkscape:pageshadow="2"
     inkscape:zoom="0.836214"
     inkscape:cx="452.30455"
     inkscape:cy="382.12257"
     inkscape:current-layer="layer1"
     id="namedview5307"
     showgrid="false"
     inkscape:window-width="1920"
     inkscape:window-height="1055"
     inkscape:window-x="1920"
     inkscape:window-y="0"
     inkscape:window-maximized="1"
     inkscape:snap-bbox="true"
     inkscape:bbox-paths="true" />
  <metadata
     id="metadata5309">
    <rdf:RDF>
      <cc:Work
         rdf:about="">
        <dc:format>image/svg+xml</dc:format>
        <dc:type
           rdf:resource="http://purl.org/dc/dcmitype/StillImage" />
        <dc:title />
      </cc:Work>
    </rdf:RDF>
  </metadata>
  <g
     inkscape:label="Layer 1"
     inkscape:groupmode="layer"
     id="layer1">
    <text
       xml:space="preserve"
       style="font-size:20.48658562px;font-style:normal;font-weight:normal;line-height:125%;letter-spacing:0px;word-spacing:0px;fill:#000000;fill-opacity:1;stroke:none;font-family:Sans"
       x="677.00354"
       y="130.50531"
       id="text3017"
       sodipodi:linespacing="125%"
       transform="scale(0.96268775,1.0387584)"><tspan
         sodipodi:role="line"
         id="tspan3019"
         x="677.00354"
         y="130.50531">IDLE</tspan></text>
    <text
       xml:space="preserve"
       style="font-size:20.48658562px;font-style:normal;font-weight:normal;line-height:125%;letter-spacing:0px;word-spacing:0px;fill:#000000;fill-opacity:1;stroke:none;font-family:Sans"
       x="658.80707"
       y="304.81152"
       id="text3021"
       sodipodi:linespacing="125%"
       transform="scale(0.96268775,1.0387584)"><tspan
         sodipodi:role="line"
         id="tspan3023"
         x="658.80707"
         y="304.81152">RINGING</tspan></text>
    <text
       xml:space="preserve"
       style="font-size:20.48658562px;font-style:normal;font-weight:normal;line-height:125%;letter-spacing:0px;word-spacing:0px;fill:#000000;fill-opacity:1;stroke:none;font-family:Sans"
       x="662.06372"
       y="488.19638"
       id="text3025"
       sodipodi:linespacing="125%"
       transform="scale(0.96268775,1.0387584)"><tspan
         sodipodi:role="line"
         id="tspan3027"
         x="662.06372"
         y="488.19638">INCALL</tspan></text>
    <path
       sodipodi:type="arc"
       style="fill:none;stroke:#000000;stroke-width:1.39999998;stroke-linejoin:bevel;stroke-miterlimit:4;stroke-opacity:1;stroke-dasharray:none"
       id="path6998"
       sodipodi:cx="224.57243"
       sodipodi:cy="164.23694"
       sodipodi:rx="48.369446"
       sodipodi:ry="32.822124"
       d="m 272.94188,164.23694 a 48.369446,32.822124 0 1 1 -96.73889,0 48.369446,32.822124 0 1 1 96.73889,0 z"
       transform="matrix(0.71783002,0,0,0.74933815,515.8771,4.0254073)" />
    <path
       sodipodi:type="arc"
       style="fill:none;stroke:#000000;stroke-width:1.39999998;stroke-linejoin:bevel;stroke-miterlimit:4;stroke-opacity:1;stroke-dasharray:none"
       id="path7000"
       sodipodi:cx="228.02739"
       sodipodi:cy="237.36694"
       sodipodi:rx="95.587242"
       sodipodi:ry="31.094645"
       d="m 323.61463,237.36694 a 95.587242,31.094645 0 1 1 -191.17448,0 95.587242,31.094645 0 1 1 191.17448,0 z"
       transform="matrix(0.71783002,0,0,0.74933815,520.01054,134.33508)"
       inkscape:connector-avoid="true" />
    <path
       sodipodi:type="arc"
       style="fill:none;stroke:#000000;stroke-width:1.39999998;stroke-linejoin:bevel;stroke-miterlimit:4;stroke-opacity:1;stroke-dasharray:none"
       id="path7002"
       sodipodi:cx="242.42307"
       sodipodi:cy="313.37607"
       sodipodi:rx="96.163071"
       sodipodi:ry="32.2463"
       d="m 338.58614,313.37607 a 96.163071,32.2463 0 1 1 -192.32615,0 96.163071,32.2463 0 1 1 192.32615,0 z"
       transform="matrix(0.71783002,0,0,0.74933815,500.99664,268.09665)" />
    <path
       style="fill:none;stroke:#000000;stroke-width:0.73341495px;stroke-linecap:butt;stroke-linejoin:miter;stroke-opacity:1"
       d="m 677.08193,127.09441 0,0"
       id="path7117"
       inkscape:connector-type="orthogonal"
       inkscape:connector-curvature="3"
       inkscape:connection-start="#path6998"
       inkscape:connection-start-point="d4"
       inkscape:connection-end="#path6998"
       inkscape:connection-end-point="d4" />
    <path
       style="fill:none;stroke:#000000;stroke-width:0.73283738;stroke-linecap:butt;stroke-linejoin:miter;stroke-miterlimit:4;stroke-opacity:1;stroke-dasharray:none;marker-end:url(#Arrow1Lend)"
       d="m 683.69545,151.24366 0,137.65912"
       id="path7119"
       inkscape:connector-type="orthogonal"
       inkscape:connector-curvature="3"
       inkscape:connection-start="#path6998"
       inkscape:connection-start-point="d4"
       inkscape:connection-end="#path7000"
       inkscape:connection-end-point="d4" />
    <path
       style="fill:none;stroke:#000000;stroke-width:0.73283738;stroke-linecap:butt;stroke-linejoin:miter;stroke-miterlimit:4;stroke-opacity:1;stroke-dasharray:none;marker-end:url(#Arrow1Lend)"
       d="m 683.69545,335.50359 0,143.44353"
       id="path7121"
       inkscape:connector-type="orthogonal"
       inkscape:connector-curvature="3"
       inkscape:connection-start="#path7000"
       inkscape:connection-start-point="d4"
       inkscape:connection-end="#path7002"
       inkscape:connection-end-point="d4" />
    <path
       style="fill:none;stroke:#000000;stroke-width:0.73283738;stroke-linecap:butt;stroke-linejoin:miter;stroke-miterlimit:4;stroke-opacity:1;stroke-dasharray:none;marker-end:url(#Arrow1Lend)"
       d="m 622.52029,80.062115 32.51695,28.029705"
       id="path7123"
       inkscape:connector-type="polyline"
       inkscape:connector-curvature="3"
       inkscape:connection-end="#path6998"
       inkscape:connection-end-point="d4" />
    <path
       style="fill:none;stroke:#000000;stroke-width:0.73341495px;stroke-linecap:butt;stroke-linejoin:miter;stroke-opacity:1;marker-end:url(#Arrow1Lend)"
       d="m 611.5899,493.36918 0,-363.27477 c 0,-1.5 1.5,-3 3,-3 l 27.77099,0"
       id="path7910"
       inkscape:connector-type="orthogonal"
       inkscape:connector-curvature="3"
       inkscape:connection-start="#path7002"
       inkscape:connection-start-point="d4"
       inkscape:connection-end="#path6998"
       inkscape:connection-end-point="d4" />
  </g>
</svg>
